PathFileType	4	(X/Y/Z)	Patient4_TMGait_0pt4_01_right_32.trc.trc
DataRate	CameraRate	NumFrames	NumMarkers	Units	OrigDataRate	OrigDataStartFrame	OrigNumFrames
74.074074074074	74.074074074074	6	33	mm	74.074074074074	36	       141
Frame#	Time	Sacral			L.Shoulder			Chest			R.Shoulder			Neck			R.ASIS			L.ASIS			R.Thigh.Superior			R.Thigh.Lateral			R.Thigh.Inferior			R.Patella			L.Thigh.Superior			L.Thigh.Lateral			L.Thigh.Inferior			L.Patella			L.Shank.Superior			L.Shank.Lateral			L.Shank.Inferior			R.Shank.Superior			R.Shank.Lateral			R.Shank.Inferior			R.Heel			R.Midfoot.Superior			R.Midfoot.Lateral			R.Toe			L.Heel			L.Midfoot.Lateral			L.Midfoot.Superior			L.Toe			L.Elbow			L.Wrist			R.Elbow			R.Wrist			
		X1	Y1	Z1	X2	Y2	Z2	X3	Y3	Z3	X4	Y4	Z4	X5	Y5	Z5	X6	Y6	Z6	X7	Y7	Z7	X8	Y8	Z8	X9	Y9	Z9	X10	Y10	Z10	X11	Y11	Z11	X12	Y12	Z12	X13	Y13	Z13	X14	Y14	Z14	X15	Y15	Z15	X16	Y16	Z16	X17	Y17	Z17	X18	Y18	Z18	X19	Y19	Z19	X20	Y20	Z20	X21	Y21	Z21	X22	Y22	Z22	X23	Y23	Z23	X24	Y24	Z24	X25	Y25	Z25	X26	Y26	Z26	X27	Y27	Z27	X28	Y28	Z28	X29	Y29	Z29	X30	Y30	Z30	X31	Y31	Z31	X32	Y32	Z32	X33	Y33	Z33	

36	41.962500000000	827.872937804889	1001.575886119327	501.801414013788	1014.715213808714	1425.454343329441	315.706641264783	1100.444575931156	1370.777146523668	490.742298971481	994.917445505620	1450.605213338028	649.748977772510	976.609818142510	1495.123551052590	466.207533514232	1051.983476038217	947.208990408178	636.715228592886	1055.675146342193	965.382141391119	361.173260469194	1109.380264454008	748.722942843709	604.170400935601	1034.918107491251	634.697008507762	665.001551089104	1115.607807480728	587.533836357342	584.524314972097	1121.068223179216	501.505678759476	590.068167452371	1081.015172530738	741.268924226016	382.846659417224	983.819242060495	634.044932025539	311.441043235720	1061.668817429382	545.226198993734	369.145546741834	1053.198240249781	466.329719053029	366.995879576129	998.855090199780	404.603913664535	359.711405666590	873.195936901979	330.256407016801	308.644627201476	888.688441568717	202.562023076190	368.259398673410	1099.552045197465	411.255377597551	600.378220570578	1036.041497620484	305.470014901040	667.494681175239	1082.232001709599	211.575291103682	604.849853226429	957.307914876312	42.830923680095	583.748186412053	1128.690918089281	98.641613580337	610.808465671853	1044.284337124460	37.287126674100	654.363982085849	1251.090274405267	48.044523376368	632.909095412481	721.171813641942	83.727952817127	403.409530802799	793.017277683537	59.754535267813	326.201745258858	886.844024369815	104.260301497987	350.898942903372	999.269509437450	36.377664668280	328.006438141265	1057.426258814140	1076.909878165239	196.993081662072	1218.164208043430	868.093717682359	213.716796985092	916.292529846978	1125.153868210368	790.993388077261	1043.344288277292	898.668657063746	814.515061501063	
37	41.976000000000	827.744007542647	1001.473469219407	506.462867610043	1012.586114428784	1425.820348571662	319.625118672932	1099.809773947783	1371.074482698619	493.933350498102	995.392662642446	1450.479984694673	653.864986319357	975.690918308166	1495.257969190552	470.476536929791	1052.763321024805	947.172253777768	639.916911095984	1054.541856931898	965.707406774505	364.410618044247	1109.262062360770	748.286288595772	607.849619939678	1033.525389591905	634.588533073659	667.891526663803	1114.338184210941	587.138639802635	587.754671131353	1119.051712509722	500.984023767395	592.679687391532	1084.907886310546	743.065712534854	385.765983789684	991.825124141581	633.676862293070	313.486358794996	1072.488142918972	546.364460665826	370.859513561677	1065.062074606832	466.065172338858	367.693672653227	1008.241953519453	404.545813656532	360.719845661859	880.015628095790	334.837401381948	309.592641303223	891.298579778051	206.621417411040	368.500529961059	1096.935478069350	410.643060825029	602.444012761656	1032.722550462334	304.981039364009	669.171156970780	1078.139824055638	211.099533960221	605.890924075396	951.894181262311	42.763365801150	583.918402789177	1123.379077851284	98.530486017297	611.101810162114	1038.880022467898	37.152705260211	654.616979924939	1245.775636605691	47.772254001975	633.091419326981	719.436812380814	95.157128767540	403.330717759916	789.939440392420	67.411696710884	326.237655451721	885.703114465536	107.661235332140	350.515230604193	993.950606984389	35.584203206280	328.060633554733	1052.172594117940	1077.120644933448	200.164347017191	1210.969370970290	866.650410117786	214.579006412515	920.582664579559	1124.624943025777	796.505788520346	1052.494078706454	900.930831608675	817.417571851484	
38	41.989500000000	827.449672829344	1001.280849668517	511.112373258948	1010.204637170718	1426.046261697786	323.437210027350	1099.107629313191	1371.226969965630	496.915136254927	996.007973280524	1450.203873399553	657.902008414956	974.748811412857	1495.281098026719	474.666859697901	1053.464205204503	947.023292369678	642.869390332266	1053.023193455862	965.735001664976	367.467640443440	1108.909577223823	747.744158695920	611.209956845302	1032.104260947096	634.448856028005	670.731782855228	1112.805114106915	586.682065404593	590.752822307938	1116.800710093847	500.410512480975	595.226509919017	1088.903439445984	745.106280902234	388.477357642456	1000.231670580409	633.523655028980	315.351947529849	1083.718630192408	547.963514778965	372.469553669897	1077.451306468401	466.341274804478	368.483077348689	1018.361646748991	404.872077420814	361.760456290923	887.714518547226	339.868212912657	310.552444004829	894.668560910515	211.314011007579	368.915443184832	1094.121546796820	409.979148113843	604.483274250694	1029.242214103801	304.426123065336	670.843332629803	1073.899195057131	210.578853248013	606.931449976193	946.370084946637	42.683083524651	584.102334143348	1117.963355087943	98.347561601192	611.372928429216	1033.371238561129	36.994679375153	654.885304575202	1240.358347029099	47.466963698565	633.259956734680	718.579893919152	107.640650207051	403.539086362717	787.557602494417	76.184125270290	326.472506967734	885.237351454237	111.825697747300	350.371787576933	989.020572098877	34.866736859847	328.174109445079	1046.475888582992	1077.133893404329	203.329961443634	1203.382236921473	865.114801955048	215.321360322856	924.965889879882	1124.051709993810	802.095841405167	1061.454270561197	903.112836587106	820.419685137242	
39	42.003000000000	826.992861481688	1001.037641425878	515.700664507808	1007.625685527263	1426.184928854066	327.124034936241	1098.359109445921	1371.249780100893	499.666730386687	996.787778002156	1449.797791657825	661.830455414389	973.813634595486	1495.232197312690	478.760056938710	1054.068656688559	946.811907298211	645.542462453545	1051.141064059587	965.493274758863	370.307105417003	1108.306617609180	747.144421726085	614.135421324521	1030.693762425733	634.302056336791	673.464836281382	1111.004038290969	586.191617570317	593.422869021767	1114.312828138459	499.809445870617	597.630492257108	1092.860425738160	747.429704978517	390.967755399366	1008.788632551393	633.692041154531	317.044216591077	1095.066649211855	550.108580738755	373.947387472875	1090.104884328983	467.258689923046	369.327096711556	1028.994235809591	405.671075356470	362.810018847357	896.103063126674	345.282044514901	311.560710710884	898.782629228462	216.547548455483	369.531623163862	1091.114365590990	409.295159424340	606.436433324588	1025.625367590382	303.842296832934	672.473274834779	1069.530912757897	210.044431757970	607.936769600903	940.787555008662	42.598945609943	584.300537312831	1112.481327361937	98.127322200558	611.616042354488	1027.807630700510	36.830726039397	655.162855822172	1234.878727186124	47.175467350211	633.413287385644	718.745428144697	120.742794129628	404.102408894344	786.079732275801	85.795204736514	326.957762811021	885.575442685146	116.680469556104	350.515990707533	984.805338249482	34.313278413608	328.341506504211	1040.348412004474	1076.994050803445	206.502251573361	1195.394847284492	863.514718159185	215.961442060084	929.500717747816	1123.429310847795	807.701799516521	1070.204448248026	905.139908436236	823.505473405567	
40	42.016500000000	826.384576417560	1000.795364311558	520.185184530638	1004.911250827460	1426.299549393765	330.669987542113	1097.584110919049	1371.175163576294	502.175762886883	997.743731623175	1449.300553361572	665.619288162995	972.912484328260	1495.160618221926	482.736127223095	1054.563024872251	946.591387159831	647.923515688380	1048.953432711445	965.059200314468	372.898785497411	1107.445901290760	746.530802258600	616.576550245485	1029.284449816747	634.165702279775	676.035815820612	1108.933602889229	585.693391718128	595.716479638936	1111.585606068831	499.207473415527	599.828145827040	1096.641006629788	750.072065087277	393.243127147925	1017.234885021177	634.277433724394	318.576358219040	1106.241870200238	552.862804743272	375.260645881121	1102.756432682868	468.891834305307	370.159489920945	1039.911457945033	407.011159221516	363.826120453516	904.980466362928	350.960281142187	312.637604500030	903.650493350472	222.160789734970	370.348502240123	1087.913152076967	408.623108181509	608.251962596419	1021.880065208232	303.266898991452	674.019937959054	1065.049246744905	209.526657796769	608.876144242514	935.188657918731	42.517998790167	584.509837991329	1106.966745864908	97.904279848689	611.834078848235	1022.228251218997	36.675367851727	655.441245577416	1229.368931456946	46.933488658125	633.551498125675	720.093855757553	133.888294952999	405.056398250652	785.751113784369	95.823224473580	327.720638711014	886.891990970530	122.056878271511	350.960305632937	981.715080838748	34.025868544817	328.547412158137	1033.812506779257	1076.764032685241	209.688322868521	1186.999686525256	861.889120810081	216.524714750595	934.253574168406	1122.765385627027	813.250519674875	1078.742995524694	906.955068189789	826.645309990758	
41	42.030000000000	825.643527276751	1000.609938726519	524.531299556996	1002.124108914159	1426.455279502257	334.065224179567	1096.800984074913	1371.047202960911	504.440117492817	998.874811864162	1448.762204811786	669.240073880223	972.067136542048	1495.118029685344	486.576401468435	1054.938872240246	946.410111988613	650.015423110675	1046.539048895858	964.541376330487	375.223676707478	1106.324898345747	745.936710429910	618.544469285379	1027.826956073107	634.051497300002	678.399048841732	1106.592250034947	585.207990257274	597.630529080480	1108.612464162121	498.630060170642	601.778260150726	1100.124224371825	753.057103418209	395.323603497691	1025.322576795820	635.349293105461	319.965399079354	1116.978114086767	556.254012645684	376.376792388946	1115.147504909790	471.278589832509	370.900032721253	1050.894354717359	408.927825488855	364.755664922798	914.158095180366	356.727398407229	313.780689255455	909.315193020636	227.924396738336	371.333843368266	1084.510292956965	407.992123194820	609.893126028279	1017.998040565004	302.733206029085	675.446794492198	1060.460684618736	209.051974344507	609.727466297846	929.602571425888	42.445112084210	584.724791245348	1101.448115057467	97.710403052510	612.039702799944	1016.659277810957	36.538682285659	655.711380588200	1223.851266116424	46.762143258404	633.675076450402	722.800468958366	146.398146128520	406.392361339183	786.846086471027	105.726584242674	328.753413803971	889.405040801214	127.694467313486	351.675531763081	980.225057520951	34.102251967393	328.762224715473	1026.900770553394	1076.518039370010	212.889261908396	1178.193898396788	860.284239586710	217.041724252008	939.289131295195	1122.077894058747	818.662750586759	1087.087962100485	908.524322915724	829.793878191320	
